grf
version=1
nRows=15
nColumns=37
inDegrees=no
endheader
time	ground_force_1_vx	ground_force_1_vy	ground_force_1_vz	ground_force_1_px	ground_force_1_py	ground_force_1_pz	ground_moment_1_mx	ground_moment_1_my	ground_moment_1_mz	ground_force_2_vx	ground_force_2_vy	ground_force_2_vz	ground_force_2_px	ground_force_2_py	ground_force_2_pz	ground_moment_2_mx	ground_moment_2_my	ground_moment_2_mz	ground_force_3_vx	ground_force_3_vy	ground_force_3_vz	ground_force_3_px	ground_force_3_py	ground_force_3_pz	ground_moment_3_mx	ground_moment_3_my	ground_moment_3_mz	ground_force_4_vx	ground_force_4_vy	ground_force_4_vz	ground_force_4_px	ground_force_4_py	ground_force_4_pz	ground_moment_4_mx	ground_moment_4_my	ground_moment_4_mz
      8.25000000	      0.00000000	     -0.00000000	      0.00000000	      0.00000000	      0.00000000	      0.00000000	      0.00000000	      0.00000000	      0.00000000	    -12.04341888	     68.01062775	   -305.87020874	   -166.10238003	  -1107.93287524	      0.00000000	      0.00000000	      0.00000000	   1278.73625253	     -9.64319426	    -98.88757240	   -522.99029541	   -188.65811297	   -710.12517591	      0.00000000	      0.00000000	     -0.00000000	  -2974.55574782	      0.00000000	     -0.00000000	      0.00000000	      0.00000000	      0.00000000	      0.00000000	      0.00000000	      0.00000000	      0.00000000
      8.26000000	      0.00000000	     -0.00000000	      0.00000000	      0.00000000	      0.00000000	      0.00000000	      0.00000000	      0.00000000	      0.00000000	     -8.10521126	     62.79813766	   -278.55648804	   -168.99536369	  -1106.48549581	      0.00000000	      0.00000000	     -0.00000000	   1008.32477422	     -6.19676135	    -95.27321571	   -489.22912598	   -193.25429095	   -710.75200053	      0.00000000	     -0.00000000	     -0.00000000	  -3061.75910027	      0.00000000	     -0.00000000	      0.00000000	      0.00000000	      0.00000000	      0.00000000	      0.00000000	      0.00000000	      0.00000000
      8.27000000	      0.00000000	     -0.00000000	      0.00000000	      0.00000000	      0.00000000	      0.00000000	      0.00000000	      0.00000000	      0.00000000	     -4.79816914	     58.31647873	   -257.19100952	   -173.18501573	  -1105.49081979	      0.00000000	      0.00000000	      0.00000000	    759.35404898	     -2.45176810	    -92.08112314	   -459.13439941	   -198.00390608	   -710.48843119	      0.00000000	      0.00000000	     -0.00000000	  -2883.37124842	      0.00000000	     -0.00000000	      0.00000000	      0.00000000	      0.00000000	      0.00000000	      0.00000000	      0.00000000	      0.00000000
      8.28000000	      0.00000000	     -0.00000000	      0.00000000	      0.00000000	      0.00000000	      0.00000000	      0.00000000	      0.00000000	      0.00000000	     -2.79716516	     54.19128418	   -247.45387268	   -182.41630369	  -1109.48609628	      0.00000000	      0.00000000	      0.00000000	   1090.88197633	      1.01395377	    -87.70343026	   -433.79531860	   -204.37693539	   -710.46292463	      0.00000000	      0.00000000	     -0.00000000	  -2781.63342082	      0.00000000	     -0.00000000	      0.00000000	      0.00000000	      0.00000000	      0.00000000	      0.00000000	      0.00000000	      0.00000000
      8.29000000	      0.00000000	     -0.00000000	      0.00000000	      0.00000000	      0.00000000	      0.00000000	      0.00000000	      0.00000000	      0.00000000	     -0.52275121	     50.37118149	   -234.46194458	   -189.15055444	  -1110.19806207	      0.00000000	      0.00000000	      0.00000000	   1130.50734926	      5.24021463	    -84.03218124	   -413.27182007	   -210.35485825	   -710.79987161	      0.00000000	      0.00000000	     -0.00000000	  -2599.97870714	      0.00000000	     -0.00000000	      0.00000000	      0.00000000	      0.00000000	      0.00000000	      0.00000000	      0.00000000	      0.00000000
      8.30000000	      0.00000000	     -0.00000000	      0.00000000	      0.00000000	      0.00000000	      0.00000000	      0.00000000	      0.00000000	      0.00000000	      2.11013699	     49.81772232	   -222.45440674	   -194.99141245	  -1108.49005362	      0.00000000	      0.00000000	      0.00000000	    858.05285590	      9.09198542	    -79.60430988	   -396.98541260	   -217.23484000	   -712.84820046	      0.00000000	      0.00000000	     -0.00000000	  -2455.69182428	      0.00000000	     -0.00000000	      0.00000000	      0.00000000	      0.00000000	      0.00000000	      0.00000000	      0.00000000	      0.00000000
      8.31000000	      0.00000000	     -0.00000000	      0.00000000	      0.00000000	      0.00000000	      0.00000000	      0.00000000	      0.00000000	      0.00000000	      4.72815704	     50.19873810	   -219.98271179	   -202.05613498	  -1112.73773976	      0.00000000	      0.00000000	      0.00000000	    830.39320921	     11.91794687	    -75.78001508	   -389.92987061	   -225.25298834	   -713.39538684	      0.00000000	     -0.00000000	     -0.00000000	  -2490.58185155	      0.00000000	     -0.00000000	      0.00000000	      0.00000000	      0.00000000	      0.00000000	      0.00000000	      0.00000000	      0.00000000
      8.32000000	      0.00000000	     -0.00000000	      0.00000000	      0.00000000	      0.00000000	      0.00000000	      0.00000000	      0.00000000	      0.00000000	      6.74376869	     50.75743103	   -218.19348145	   -203.52714523	  -1113.37523029	      0.00000000	      0.00000000	      0.00000000	    544.73876297	     15.08082705	    -73.02995432	   -386.85998535	   -232.82202231	   -716.19951319	      0.00000000	     -0.00000000	     -0.00000000	  -2436.67141341	      0.00000000	     -0.00000000	      0.00000000	      0.00000000	      0.00000000	      0.00000000	      0.00000000	      0.00000000	      0.00000000
      8.33000000	      0.00000000	     -0.00000000	      0.00000000	      0.00000000	      0.00000000	      0.00000000	      0.00000000	      0.00000000	      0.00000000	      3.64569807	     52.81260300	   -220.21893311	   -204.99862447	  -1113.54243172	      0.00000000	      0.00000000	      0.00000000	    165.56343417	     16.53018899	    -71.42238761	   -390.37512207	   -239.63663966	   -717.24770029	      0.00000000	      0.00000000	     -0.00000000	  -2212.87481040	      0.00000000	     -0.00000000	      0.00000000	      0.00000000	      0.00000000	      0.00000000	      0.00000000	      0.00000000	      0.00000000
      8.34000000	      0.00000000	     -0.00000000	      0.00000000	      0.00000000	      0.00000000	      0.00000000	      0.00000000	      0.00000000	      0.00000000	     -0.01178897	     52.65251541	   -216.96916199	   -206.79821097	  -1111.02603899	      0.00000000	      0.00000000	      0.00000000	    160.27784917	     16.96745836	    -69.65630489	   -397.54446411	   -244.46379284	   -719.83363825	      0.00000000	      0.00000000	     -0.00000000	  -1862.55878795	      0.00000000	     -0.00000000	      0.00000000	      0.00000000	      0.00000000	      0.00000000	      0.00000000	      0.00000000	      0.00000000
      8.35000000	      0.00000000	     -0.00000000	      0.00000000	      0.00000000	      0.00000000	      0.00000000	      0.00000000	      0.00000000	      0.00000000	      0.11831854	     53.55574417	   -217.58187866	   -211.35060479	  -1114.39392035	      0.00000000	      0.00000000	      0.00000000	    170.27686234	     16.54793525	    -68.20182945	   -405.43417358	   -247.80670493	   -721.57293178	      0.00000000	      0.00000000	     -0.00000000	  -1539.00047829	      0.00000000	     -0.00000000	      0.00000000	      0.00000000	      0.00000000	      0.00000000	      0.00000000	      0.00000000	      0.00000000
      8.36000000	      0.00000000	     -0.00000000	      0.00000000	      0.00000000	      0.00000000	      0.00000000	      0.00000000	      0.00000000	      0.00000000	      2.16980219	     54.18553925	   -216.47653198	   -213.79321387	  -1114.36363909	      0.00000000	      0.00000000	      0.00000000	     94.68352603	     14.36535931	    -65.41758091	   -406.97421265	   -249.39399289	   -722.97255554	      0.00000000	      0.00000000	     -0.00000000	  -1264.03367507	      0.00000000	     -0.00000000	      0.00000000	      0.00000000	      0.00000000	      0.00000000	      0.00000000	      0.00000000	      0.00000000
      8.37000000	      0.00000000	     -0.00000000	      0.00000000	      0.00000000	      0.00000000	      0.00000000	      0.00000000	      0.00000000	      0.00000000	      3.72412896	     52.90374756	   -210.73602295	   -216.24065463	  -1115.29916654	      0.00000000	      0.00000000	     -0.00000000	    -55.26087312	     12.95747966	    -63.39222831	   -400.99542236	   -252.61783456	   -723.09973566	      0.00000000	     -0.00000000	     -0.00000000	  -1042.37865842	      0.00000000	     -0.00000000	      0.00000000	      0.00000000	      0.00000000	      0.00000000	      0.00000000	      0.00000000	      0.00000000
      8.38000000	      0.00000000	     -0.00000000	      0.00000000	      0.00000000	      0.00000000	      0.00000000	      0.00000000	      0.00000000	      0.00000000	      6.61839342	     50.40300751	   -199.83326721	   -221.63412721	  -1116.70440277	      0.00000000	      0.00000000	      0.00000000	     65.28354382	     16.38480415	    -61.08492422	   -386.79339600	   -257.24789732	   -723.62100650	      0.00000000	      0.00000000	     -0.00000000	  -1142.90301502	      0.00000000	     -0.00000000	      0.00000000	      0.00000000	      0.00000000	      0.00000000	      0.00000000	      0.00000000	      0.00000000
      8.39000000	      0.00000000	     -0.00000000	      0.00000000	      0.00000000	      0.00000000	      0.00000000	      0.00000000	      0.00000000	      0.00000000	      8.40792179	     49.50054550	   -191.57954407	   -222.60395495	  -1117.82949406	      0.00000000	      0.00000000	     -0.00000000	   -101.87532367	     22.46609163	    -60.08646208	   -379.09100342	   -262.13432467	   -722.80615920	      0.00000000	      0.00000000	      0.00000000	  -1057.09167227	      0.00000000	     -0.00000000	      0.00000000	      0.00000000	      0.00000000	      0.00000000	      0.00000000	      0.00000000	      0.00000000
